<svg id="Layer_1" data-name="Layer 1" xmlns="http://www.w3.org/2000/svg" viewBox="0 0 200 200"><title>map</title><path d="M71.32,64.85c5.79,3,13.89,7.66,22.36,11.48,5.63,2.53,19.61-10.11,20.81-17.86,9.85,4.33,20.8,7.33,29.42,13.55,5.75,4.14,8.18,12.88,12.15,19.66l-13.85,6.51c10.57,11.8,10.65,12-2.05,19-11,6.11-22,12.65-33.62,17.35-5.42,2.19-12.42.56-18.71.46-1.18,0-2.49-1.64-3.51-1.43-12.06,2.51-24.08,5.22-36.55,8-7.25-12.86-2.89-25.42,2.18-37C55.72,91.28,63.59,79,71.32,64.85Z" style="fill:#080c19"/></svg>