<svg id="Layer_1" data-name="Layer 1" xmlns="http://www.w3.org/2000/svg" viewBox="0 0 300 300"><title>map</title><path d="M150.49,80.32H260.3c.76,11.86,1.82,24.28,2.13,36.72.06,2.29-2.37,5.51-4.53,6.78-3.68,2.14-8.27,2.67-12.11,4.59-9.33,4.66-19,8.91-27.53,14.85-11,7.7-4,18.49-2.92,28.19,1.51,13.91,2.72,27.84,4,41.77.07.77-.42,1.58-1.45,5.19-39.76,0-80.32,0-120.87,0-15.31,0-30.63.05-45.91.71-4.22.18-8.35,2.64-13.53,4.4C40,214.28,41.81,203.14,46,193c2.16-5.19,8.77-8.45,13.06-12.88,3.81-3.93,8.14-7.77,10.61-12.49,9.06-17.34,18.22-34.69,25.86-52.67,6.74-15.88,20.14-24.56,32.24-35.08,6.33-5.52,10.35-3.71,15.37,1,3.87,3.61,4.09,3.37,7.76-1C150.91,79.88,150.49,80.32,150.49,80.32Z" style="fill:#080c19"/></svg>