<svg id="Layer_1" data-name="Layer 1" xmlns="http://www.w3.org/2000/svg" viewBox="0 0 200 200"><title>map</title><path d="M89,139.27c-3-3.92-5.35-6.68-7.23-9.77-1.07-1.77-.76-5.41-2-5.9-17.15-6.88-6.84-14.72-1.68-23.45,6-10.11,10.47-21.1,15.54-31.74,4.42-9.26,12-10.22,18.77-2.48,1.87,2.13,3.93,4.61,6.42,5.57,6.33,2.42,14,3.24,6.77,13-1,1.32,1.78,5.41,4.08,11.67-5.48-2.77-7.68-4.53-10.09-4.91a9.55,9.55,0,0,0-6.76,1.53c-1.11.89-1.13,3.94-.72,5.82,2.14,9.94,4.58,19.81,6.92,29.71l-4.45,2.65-16.12-7.17Z" style="fill:#080c19"/></svg>