<svg id="Layer_1" data-name="Layer 1"
    xmlns="http://www.w3.org/2000/svg" viewBox="0 0 700 700">
    <title>mp</title>
    <path d="M133.46,525.38l-17.33-11.22c6.21-20,11.58-40.6,19.32-60.23,2.14-5.42,10.94-9,17.4-11.79,22.58-9.7,27.48-31.51,36.76-50.7,3.21-6.64,8.87-14.09,15.27-16.79,13.14-5.56,27.54-8.16,42.87-12.37,6.83,10.87,15.83,20.52,31.14,19.34,9.49-.74,19.18-3.19,28.39-1.95,10.1,1.36,19.79,6,29.58,9.39,3.63,1.28,7.74,5.45,10.4,4.57C366.6,387.21,369,411,383.34,413.38c.93.15,1.59,4.63,1.64,7.11.19,9.55.08,19.11.08,29.67-2.71.3-6,.89-9.38,1-40.19,1.3-80.38,3-120.58,3.52-11.46.16-13.82,4.24-13.22,14.72.92,16.09.24,32.27.24,51.83-10.08,0-21-.18-31.82,0s-21.55,1-32.33,1.28c-6.9.16-13.85-.76-20.7-.23-8.12.62-16.16,2.28-24.23,3.49Z" style="fill:#3680ff"/>
    <path d="M133,525.81H242.85c.76,11.86,1.82,24.29,2.13,36.73.06,2.28-2.36,5.51-4.53,6.78-3.68,2.14-8.26,2.67-12.11,4.59-9.33,4.66-19,8.9-27.52,14.84-11,7.71-4,18.5-2.93,28.2,1.51,13.91,2.72,27.84,4,41.77.07.76-.42,1.58-1.46,5.19-39.76,0-80.32,0-120.87,0-15.31,0-30.62,0-45.91.7-4.22.19-8.34,2.64-13.53,4.4,2.42-9.26,4.24-20.41,8.46-30.56,2.15-5.2,8.76-8.45,13.06-12.88,3.81-3.93,8.13-7.77,10.61-12.5,9.06-17.33,18.22-34.68,25.85-52.66,6.74-15.88,20.14-24.56,32.24-35.09,6.33-5.51,10.36-3.7,15.38,1,3.86,3.61,4.09,3.37,7.75-1C133.46,525.38,133,525.81,133,525.81Z" style="fill:#cc2f2f"/>
    <path d="M507.18,170.27c3.37-15.15,3.44-30.57,16.95-38.07,13.43,6.06,25.46,11.29,37.28,17a19.53,19.53,0,0,1,7.47,6.34c4.94,7.34,8.53,14.8,20.38,12.41,6.5-1.32,11.32,12,6.73,17.25a28.81,28.81,0,0,1-6.87,6c-15.72,9.24-16.3,14.88.32,28.94-8.85,6-17,11.35-25,16.84-20.73,14.2-42.64,27.13-54.27,49.2-5.62,1.11-10.45,1.9-15.19,3-14.85,3.56-20.3-2.32-19.76-17.58.25-7-3.5-15.12-7.82-21-4.82-6.52-10.92-2.77-17,1.27-5.56,3.7-12.75,5-21.78,8.22-3-10.36-6.64-23.11-10.65-37,16.9-6.82,34.91-11.86,50.49-21C483.07,193.44,495.05,180.47,507.18,170.27Z" style="fill:#24ff2a"/>
    <path d="M563,102.8c.77-10.34,1.39-20.58,2.38-30.79a37.47,37.47,0,0,1,2.52-11.13c3.24-7.5,9.34-14.93-3.8-19.55-1.36-.48-.7-6.7-.91-9.34l24.64-2.75c9.52,1.61,17.81,5.68,23.88,3.52,14.41-5.13,23.59,6.17,29.13,12.32,7.34,8.17,7.2,23,10.5,34.88s5.87,24.28,10.61,35.66c5.4,13,9.68,16.13,21.66,23-.9,6.51-1.77,12.87-2.66,19.32-15.91.94-33.17,1.3-50.24,3.25-9.72,1.1-21.85,1.91-17.41,19.36l-4.83.23-11.5-18.88c-6.64.57-17.58,3.19-24.41-9.23a18.74,18.74,0,0,1,13.25-27.56c8.24-1.38,16.27-4,29-7.16L596.9,98.65l4.43-5.72C582.66,77.65,571.85,92.84,563,102.8Z" style="fill:#005dff"/>
    <path d="M328.81,246.11c26.38-12,57.74-1.13,83.6-17.46,2.11,4.46,5,10.64,8.4,17.81-6.63,12.56-2.88,18,10.77,19.61,11.94-5.89,20.05-10.12,28.44-13.69.83-.35,4.41,3.12,5,5.27,2.51,9.4,4.38,19,7.21,31.76-42.27-2.93-67.76,23.79-95,50.31-5.14-7.11-18.62-11.44-12.78-27.94,3.06-8.67-7-15.51-17-14.61-7.16.65-14.49-.52-23.9-1C343.35,266.92,343.79,261.23,328.81,246.11Z" style="fill:#ff42e7"/>
    <path d="M381.4,408.41c-5-5.09-9.46-10.79-15-15.07-3.44-2.63-8.46-3.39-12.9-4.45-3.71-.88-8.63.38-11.25-1.63-18.81-14.38-39.56-15.49-61.72-11.11-12.52,2.47-21.46-3.22-26.94-15l71.21-59.06h31.77c.7,2.87,4,8.57,2.39,11.3-5.3,8.87,0,15.8,4.93,19.35,16.84,12.17,20.84,28.48,19.91,47.7-.42,8.61.8,17.29,1.27,25.95Z" style="fill:#ff06ae"/>
    <path d="M356.79,162.06c5.78,3,13.88,7.66,22.36,11.47,5.63,2.53,19.6-10.11,20.8-17.85,9.86,4.32,20.8,7.32,29.43,13.54,5.74,4.15,8.17,12.88,12.15,19.67l-13.85,6.51c10.57,11.8,10.65,11.95-2.06,19-11,6.11-22,12.65-33.61,17.35-5.43,2.19-12.43.57-18.71.47-1.18,0-2.49-1.65-3.51-1.44-12.06,2.51-24.08,5.22-36.55,8-7.25-12.86-2.89-25.42,2.17-37C341.19,188.48,349.06,176.17,356.79,162.06Z" style="fill:#ccb32f"/>
    <path d="M487.73,108.37,512,54.91c19.29,9.81,36.91,1.14,53.73-7.56-2.39,16-4.53,31.07-6.93,46.07-.81,5.1-9.93,10.94.11,14.84,7.18,2.79,13.42.27,14.93-9.16.49-3,3.85-5.65,5.92-8.49l14.08,3.76-6.2,9,18.16,12.06c-11.79,3.27-22,3.83-29.3,8.77s-11.65,14.3-17,21.31C548.6,138.81,539.85,132,530,128c-4.23-1.74-10.79,2.21-16.31,3.58C507.09,125.67,499,118.47,487.73,108.37Z" style="fill:#722f2f"/>
    <path d="M436.2,196.51c8.1-.71,10.8-3.27,8.1-12.46-2.25-7.61,0-16.52.09-24.85.11-9.8,0-19.61,0-30.92,12.25,3,21.73,6.75,22.55-4.8l25.93-1.91,3.39-3.8c4,9.63,9,19,11.56,29,.88,3.45-4.23,8.53-6.8,12.74-9.36,15.34-16,33-35.37,39.64-4.54,1.55-8.07,6.26-12.62,7.53-3.45,1-8.23-.4-11.59-2.24C439,203.12,438,199.32,436.2,196.51Z" style="fill:#cc8d6e"/>
    <path d="M435.19,167.64,398.31,148,386,167.94c-8.83-2.74-14-4.23-19-5.91-7.59-2.52-6.37-6.46-2.92-12.35,10.5-17.92,29-24.52,45.76-33.6,7.13-3.85,14.41-7.43,21.21-10.92,3.72,3.33,7.64,6.4,11,10,1.53,1.65,2.91,4.49,2.64,6.57-1.69,13.37-3.8,26.69-5.95,40C438.4,163.23,437.05,164.54,435.19,167.64Z" style="fill:#8800c2"/>
    <path d="M457,128.75c-3-3.91-5.35-6.68-7.23-9.76-1.08-1.77-.76-5.41-2-5.91-17.16-6.88-6.85-14.72-1.68-23.45,6-10.1,10.47-21.1,15.54-31.74,4.42-9.25,11.95-10.21,18.76-2.47,1.88,2.12,3.94,4.61,6.43,5.56,6.33,2.43,14,3.25,6.77,13-1,1.32,1.78,5.41,4.08,11.67-5.49-2.78-7.68-4.54-10.09-4.91a9.45,9.45,0,0,0-6.76,1.53c-1.11.89-1.13,3.93-.73,5.81,2.15,9.94,4.59,19.82,6.92,29.72l-4.44,2.64-16.12-7.16C464.31,116.82,461.6,121.27,457,128.75Z" style="fill:#cc2f2f"/>
    <path d="M494.1,7.74c11.72,24.77,30,32.32,62,24.24.89,4.06,1.76,8.08,2.39,11-15.5,13.88-33.41,9.17-50.85,8.6l-3.44,13.61L468,41.7C471.65,28.19,470.71,9.35,494.1,7.74Z" style="fill:#ffbe73"/>
</svg>