<svg id="Layer_1" data-name="Layer 1" xmlns="http://www.w3.org/2000/svg" viewBox="0 0 200 200"><title>map</title><path d="M99.26,59.09c3.37-15.16,3.44-30.57,17-38.07C129.65,27.07,141.67,32.31,153.5,38A19.53,19.53,0,0,1,161,44.31c4.94,7.34,8.54,14.8,20.38,12.4,6.51-1.31,11.33,12,6.73,17.26a28.36,28.36,0,0,1-6.87,6c-15.71,9.25-16.3,14.89.32,28.94-8.85,6-16.94,11.35-25,16.85-20.73,14.19-42.63,27.12-54.27,49.2-5.61,1.11-10.44,1.89-15.19,3-14.85,3.57-20.3-2.32-19.75-17.57.25-7-3.5-15.13-7.83-21-4.82-6.53-10.91-2.77-17,1.27-5.55,3.7-12.74,4.95-21.77,8.21l-10.65-37C27,105.06,45,100,60.59,90.84,75.16,82.26,87.14,69.29,99.26,59.09Z" style="fill:#080c19"/></svg>