<svg id="Layer_1" data-name="Layer 1" xmlns="http://www.w3.org/2000/svg" viewBox="0 0 300 300"><title>map</title><path d="M32.85,231.33,15.52,220.11c6.21-20,11.58-40.6,19.32-60.23,2.14-5.42,10.94-9,17.4-11.79,22.58-9.7,27.48-31.51,36.76-50.7,3.21-6.64,8.87-14.09,15.27-16.79,13.14-5.55,27.54-8.15,42.87-12.37C154,79.11,163,88.75,178.28,87.57c9.49-.73,19.18-3.19,28.38-1.95,10.11,1.36,19.8,6,29.59,9.4,3.63,1.27,7.74,5.44,10.4,4.56C266,93.17,268.43,117,282.73,119.33c.93.15,1.59,4.63,1.64,7.12.19,9.55.08,19.1.08,29.66-2.71.3-6,.89-9.38,1-40.19,1.31-80.38,3-120.58,3.52-11.46.16-13.82,4.25-13.22,14.72.92,16.09.24,32.27.24,51.83-10.08,0-20.95-.18-31.82,0s-21.55,1-32.33,1.28c-6.9.16-13.85-.75-20.71-.23-8.11.62-16.15,2.28-24.22,3.49Z" style="fill:#080c19"/></svg>