<svg id="Layer_1" data-name="Layer 1" xmlns="http://www.w3.org/2000/svg" viewBox="0 0 200 200"><title>map</title><path d="M39.7,97.81c.77-10.34,1.39-20.58,2.37-30.78A37.62,37.62,0,0,1,44.6,55.89c3.24-7.5,9.34-14.93-3.81-19.55-1.36-.48-.7-6.69-.9-9.33l24.64-2.76c9.52,1.62,17.8,5.68,23.88,3.52,14.4-5.13,23.59,6.17,29.12,12.33,7.35,8.16,7.21,23,10.5,34.88s5.88,24.27,10.61,35.66c5.4,13,9.68,16.12,21.66,23-.89,6.5-1.77,12.87-2.66,19.31-15.9,1-33.16,1.31-50.24,3.25-9.72,1.11-21.85,1.92-17.4,19.37l-4.83.22L73.66,156.87c-6.63.57-17.57,3.2-24.4-9.23a18.74,18.74,0,0,1,13.25-27.56c8.23-1.38,16.27-4,28.95-7.15-7.73-8.37-12.61-13.64-17.82-19.27L78.08,88C59.4,72.66,48.6,87.86,39.7,97.81Z" style="fill:#080c19"/></svg>